<?xml version="1.0" encoding="utf-8"?>
<!-- Generator: Adobe Illustrator 12.0.0, SVG Export Plug-In . SVG Version: 6.00 Build 51448)  -->
<!DOCTYPE svg PUBLIC "-//W3C//DTD SVG 1.1//EN" "http://www.w3.org/Graphics/SVG/1.1/DTD/svg11.dtd" [
	<!ENTITY ns_svg "http://www.w3.org/2000/svg">
	<!ENTITY ns_xlink "http://www.w3.org/1999/xlink">
]>
<svg  version="1.1" id="Layer_1" xmlns="&ns_svg;" xmlns:xlink="&ns_xlink;" width="16" height="16" viewBox="0 0 16 16"
	 overflow="visible" enable-background="new 0 0 16 16" xml:space="preserve">
<g>
	<rect fill="none" width="16" height="16"/>
	<g>
		<g>
			<g>
				<g>
					
						<radialGradient id="XMLID_3_" cx="4.8145" cy="5.0918" r="11.5364" gradientTransform="matrix(0.9554 0 0 0.9553 0.7654 0.324)" gradientUnits="userSpaceOnUse">
						<stop  offset="0" style="stop-color:#F4BB9A"/>
						<stop  offset="0.0694" style="stop-color:#EDA98C"/>
						<stop  offset="0.3115" style="stop-color:#D56D60"/>
						<stop  offset="0.49" style="stop-color:#C64844"/>
						<stop  offset="0.5843" style="stop-color:#C03A3A"/>
						<stop  offset="0.7264" style="stop-color:#AD2323"/>
						<stop  offset="0.8912" style="stop-color:#9C0E0E"/>
						<stop  offset="1" style="stop-color:#960606"/>
					</radialGradient>
					<path fill="url(#XMLID_3_)" d="M1.205,8.001c0,3.747,3.048,6.795,6.794,6.795c3.748,0,6.797-3.048,6.797-6.795
						c0-3.748-3.049-6.796-6.797-6.796C4.252,1.205,1.205,4.253,1.205,8.001z"/>
					<path fill="#7B341F" d="M7.999,1C4.133,1,1,4.136,1,8.001C1,11.867,4.133,15,7.999,15C11.866,15,15,11.867,15,8.001
						C15,4.136,11.866,1,7.999,1L7.999,1z M7.999,14.591c-3.634,0-6.59-2.956-6.59-6.59c0-3.635,2.956-6.592,6.59-6.592
						c3.635,0,6.592,2.957,6.592,6.592C14.591,11.635,11.634,14.591,7.999,14.591L7.999,14.591z"/>
				</g>
			</g>
		</g>
		
			<linearGradient id="XMLID_4_" gradientUnits="userSpaceOnUse" x1="-63.9365" y1="-810.6626" x2="-63.9365" y2="-817.5543" gradientTransform="matrix(0.7258 -0.2808 -0.2871 -0.7419 -181.4041 -617.9587)">
			<stop  offset="0.0056" style="stop-color:#FFFFFF"/>
			<stop  offset="1" style="stop-color:#FFFFFF"/>
		</linearGradient>
		<path opacity="0.3" fill="url(#XMLID_4_)" enable-background="new    " d="M5.339,2.476c2.033-0.786,4.132-0.262,4.687,1.172
			c0.556,1.433-0.645,3.234-2.677,4.021C5.314,8.454,3.215,7.93,2.661,6.497C2.106,5.063,3.305,3.263,5.339,2.476z"/>
	</g>
</g>
</svg>
