<?xml version="1.0" encoding="utf-8"?>
<!-- Generator: Adobe Illustrator 12.0.0, SVG Export Plug-In . SVG Version: 6.00 Build 51448)  -->
<!DOCTYPE svg PUBLIC "-//W3C//DTD SVG 1.1//EN" "http://www.w3.org/Graphics/SVG/1.1/DTD/svg11.dtd" [
	<!ENTITY ns_svg "http://www.w3.org/2000/svg">
	<!ENTITY ns_xlink "http://www.w3.org/1999/xlink">
]>
<svg  version="1.1" id="Layer_1" xmlns="&ns_svg;" xmlns:xlink="&ns_xlink;" width="14" height="14" viewBox="0 0 14 14"
	 overflow="visible" enable-background="new 0 0 14 14" xml:space="preserve">
<g>
	<rect x="0.001" y="0" fill="none" width="14" height="14"/>
	<g>
		<g>
			<linearGradient id="XMLID_6_" gradientUnits="userSpaceOnUse" x1="10.4731" y1="-3.4497" x2="10.4731" y2="15.1491">
				<stop  offset="0" style="stop-color:#E6EEF4"/>
				<stop  offset="0.0772" style="stop-color:#C6DCC1"/>
				<stop  offset="0.211" style="stop-color:#91C06F"/>
				<stop  offset="0.321" style="stop-color:#6BAB33"/>
				<stop  offset="0.4014" style="stop-color:#539E0E"/>
				<stop  offset="0.4438" style="stop-color:#4A9900"/>
				<stop  offset="0.5475" style="stop-color:#398419"/>
				<stop  offset="0.7125" style="stop-color:#22663B"/>
				<stop  offset="0.8486" style="stop-color:#135550"/>
				<stop  offset="0.9382" style="stop-color:#0E4E58"/>
			</linearGradient>
			<path fill="url(#XMLID_6_)" d="M6.978,6.914c0,2.364,0,4.707,0,7.043c0.01,0,0.021,0.002,0.031,0.002
				c3.844,0,6.96-3.117,6.96-6.96c0-0.029-0.003-0.056-0.004-0.084C11.721,6.914,9.349,6.914,6.978,6.914z"/>
			<linearGradient id="XMLID_7_" gradientUnits="userSpaceOnUse" x1="10.4712" y1="2.6934" x2="10.4712" y2="14.1398">
				<stop  offset="0" style="stop-color:#DCE8E4"/>
				<stop  offset="1" style="stop-color:#43910A"/>
			</linearGradient>
			<path fill="url(#XMLID_7_)" d="M7.008,0.037c-0.01,0-0.021,0.002-0.031,0.002c0,2.32,0,4.606,0,6.875c2.372,0,4.744,0,6.987,0
				C13.918,3.109,10.824,0.037,7.008,0.037z"/>
			<linearGradient id="XMLID_8_" gradientUnits="userSpaceOnUse" x1="3.5146" y1="-3.4492" x2="3.5146" y2="15.1486">
				<stop  offset="0" style="stop-color:#E6EEF4"/>
				<stop  offset="0.0772" style="stop-color:#C6DCC1"/>
				<stop  offset="0.211" style="stop-color:#91C06F"/>
				<stop  offset="0.321" style="stop-color:#6BAB33"/>
				<stop  offset="0.4014" style="stop-color:#539E0E"/>
				<stop  offset="0.4438" style="stop-color:#4A9900"/>
				<stop  offset="0.5475" style="stop-color:#398419"/>
				<stop  offset="0.7125" style="stop-color:#22663B"/>
				<stop  offset="0.8486" style="stop-color:#135550"/>
				<stop  offset="0.9382" style="stop-color:#0E4E58"/>
			</linearGradient>
			<path fill="url(#XMLID_8_)" d="M6.978,0.039c-3.802,0.016-6.88,3.08-6.926,6.875c2.206,0,4.559,0,6.926,0
				C6.978,4.646,6.978,2.359,6.978,0.039z"/>
			<linearGradient id="XMLID_9_" gradientUnits="userSpaceOnUse" x1="3.5127" y1="2.6938" x2="3.5127" y2="14.1397">
				<stop  offset="0" style="stop-color:#DCE8E4"/>
				<stop  offset="1" style="stop-color:#43910A"/>
			</linearGradient>
			<path fill="url(#XMLID_9_)" d="M0.052,6.914c0,0.028-0.004,0.056-0.004,0.084c0,3.833,3.1,6.943,6.93,6.958
				c0-2.336,0-4.679,0-7.043C4.61,6.914,2.257,6.914,0.052,6.914z"/>
			<g>
				<path fill="#17594C" d="M6.999,0C3.133,0,0,3.134,0,7.001C0,10.865,3.133,14,6.999,14C10.866,14,14,10.865,14,7.001
					C14,3.134,10.866,0,6.999,0L6.999,0z M6.999,13.592c-3.634,0-6.59-2.957-6.59-6.59c0-3.635,2.956-6.593,6.59-6.593
					c3.635,0,6.592,2.958,6.592,6.593C13.59,10.635,10.633,13.592,6.999,13.592L6.999,13.592z"/>
			</g>
		</g>
		<linearGradient id="XMLID_10_" gradientUnits="userSpaceOnUse" x1="6.9282" y1="-0.4961" x2="6.9282" y2="6.2416">
			<stop  offset="0.0056" style="stop-color:#FFFFFF"/>
			<stop  offset="1" style="stop-color:#FFFFFF"/>
		</linearGradient>
		<ellipse opacity="0.2" fill="url(#XMLID_10_)" enable-background="new    " cx="6.928" cy="4.309" rx="4.982" ry="3.422"/>
	</g>
</g>
</svg>
