<?xml version="1.0" encoding="utf-8"?>
<!-- Generator: Adobe Illustrator 12.0.0, SVG Export Plug-In . SVG Version: 6.00 Build 51448)  -->
<!DOCTYPE svg PUBLIC "-//W3C//DTD SVG 1.1//EN" "http://www.w3.org/Graphics/SVG/1.1/DTD/svg11.dtd" [
	<!ENTITY ns_svg "http://www.w3.org/2000/svg">
	<!ENTITY ns_xlink "http://www.w3.org/1999/xlink">
]>
<svg  version="1.1" id="Layer_1" xmlns="&ns_svg;" xmlns:xlink="&ns_xlink;" width="15" height="15" viewBox="0 0 15 15"
	 overflow="visible" enable-background="new 0 0 15 15" xml:space="preserve">
<g>
	<rect fill="none" width="15" height="15"/>
	<g>
		<g>
			<g>
				<g>
					
						<radialGradient id="XMLID_3_" cx="5.2412" cy="4.4292" r="11.5378" gradientTransform="matrix(0.8955 0 0 0.8957 0.3363 0.8964)" gradientUnits="userSpaceOnUse">
						<stop  offset="0" style="stop-color:#F4BB9A"/>
						<stop  offset="0.0694" style="stop-color:#EDA98C"/>
						<stop  offset="0.3115" style="stop-color:#D56D60"/>
						<stop  offset="0.49" style="stop-color:#C64844"/>
						<stop  offset="0.5843" style="stop-color:#C03A3A"/>
						<stop  offset="0.7264" style="stop-color:#AD2323"/>
						<stop  offset="0.8912" style="stop-color:#9C0E0E"/>
						<stop  offset="1" style="stop-color:#960606"/>
					</radialGradient>
					<path fill="url(#XMLID_3_)" d="M2.996,2.995C1.792,4.198,1.129,5.797,1.129,7.499c0,3.514,2.858,6.372,6.371,6.372
						c3.514,0,6.372-2.858,6.372-6.372c0-1.702-0.663-3.302-1.866-4.504C10.803,1.792,9.202,1.129,7.5,1.129
						C5.798,1.129,4.199,1.792,2.996,2.995z"/>
					<path fill="#7B341F" d="M7.5,0.938c-3.624,0-6.563,2.937-6.563,6.562s2.939,6.563,6.563,6.563c3.625,0,6.563-2.938,6.563-6.563
						S11.125,0.938,7.5,0.938L7.5,0.938z M7.5,13.68c-3.408,0-6.18-2.771-6.18-6.18c0-3.407,2.772-6.179,6.18-6.179
						s6.18,2.772,6.18,6.179C13.68,10.908,10.908,13.68,7.5,13.68L7.5,13.68z"/>
				</g>
			</g>
		</g>
		
			<linearGradient id="XMLID_4_" gradientUnits="userSpaceOnUse" x1="-64.2925" y1="-811.7285" x2="-64.2925" y2="-818.1852" gradientTransform="matrix(0.7258 -0.2808 -0.2871 -0.7419 -181.6848 -618.9701)">
			<stop  offset="0.0056" style="stop-color:#FFFFFF"/>
			<stop  offset="1" style="stop-color:#FFFFFF"/>
		</linearGradient>
		<path opacity="0.3" fill="url(#XMLID_4_)" enable-background="new    " d="M5.079,2.289C6.984,1.55,8.951,2.042,9.473,3.386
			C9.991,4.73,8.866,6.417,6.961,7.155C5.056,7.893,3.089,7.402,2.569,6.059C2.048,4.713,3.173,3.026,5.079,2.289z"/>
	</g>
	<g>
		
			<rect x="-0.907" y="6.626" transform="matrix(0.7071 -0.7071 0.7071 0.7071 -3.1064 7.4997)" fill="#540000" width="16.814" height="1.748"/>
		
			<rect x="-0.908" y="6.627" transform="matrix(-0.7071 -0.7071 0.7071 -0.7071 7.4996 18.1066)" fill="#540000" width="16.815" height="1.746"/>
	</g>
</g>
</svg>
