<?xml version="1.0" encoding="utf-8"?>
<!-- Generator: Adobe Illustrator 12.0.0, SVG Export Plug-In . SVG Version: 6.00 Build 51448)  -->
<!DOCTYPE svg PUBLIC "-//W3C//DTD SVG 1.1//EN" "http://www.w3.org/Graphics/SVG/1.1/DTD/svg11.dtd" [
	<!ENTITY ns_svg "http://www.w3.org/2000/svg">
	<!ENTITY ns_xlink "http://www.w3.org/1999/xlink">
]>
<svg  version="1.1" id="Layer_1" xmlns="&ns_svg;" xmlns:xlink="&ns_xlink;" width="14" height="14" viewBox="0 0 14 14"
	 overflow="visible" enable-background="new 0 0 14 14" xml:space="preserve">
<g>
	<rect y="0" fill="none" width="14" height="14"/>
	<g>
		<g>
			
				<linearGradient id="XMLID_6_" gradientUnits="userSpaceOnUse" x1="10.5527" y1="-3.3711" x2="10.5527" y2="15.2264" gradientTransform="matrix(-0.7071 0.7071 -0.7071 -0.7071 17.0236 6.9917)">
				<stop  offset="0" style="stop-color:#E6EEF4"/>
				<stop  offset="0.0772" style="stop-color:#C6DCC1"/>
				<stop  offset="0.211" style="stop-color:#91C06F"/>
				<stop  offset="0.321" style="stop-color:#6BAB33"/>
				<stop  offset="0.4014" style="stop-color:#539E0E"/>
				<stop  offset="0.4438" style="stop-color:#4A9900"/>
				<stop  offset="0.5475" style="stop-color:#398419"/>
				<stop  offset="0.7125" style="stop-color:#22663B"/>
				<stop  offset="0.8486" style="stop-color:#135550"/>
				<stop  offset="0.9382" style="stop-color:#0E4E58"/>
			</linearGradient>
			<path fill="url(#XMLID_6_)" d="M7.089,7.038C5.418,5.367,3.761,3.709,2.11,2.058C2.102,2.064,2.093,2.071,2.086,2.078
				c-2.718,2.718-2.718,7.126,0,9.843c0.021,0.021,0.042,0.038,0.063,0.058C3.734,10.393,5.412,8.715,7.089,7.038z"/>
			
				<linearGradient id="XMLID_7_" gradientUnits="userSpaceOnUse" x1="10.5508" y1="2.771" x2="10.5508" y2="14.2174" gradientTransform="matrix(-0.7071 0.7071 -0.7071 -0.7071 17.0236 6.9917)">
				<stop  offset="0" style="stop-color:#DCE8E4"/>
				<stop  offset="1" style="stop-color:#43910A"/>
			</linearGradient>
			<path fill="url(#XMLID_7_)" d="M11.931,11.922c0.007-0.007,0.014-0.016,0.021-0.023c-1.641-1.641-3.258-3.257-4.862-4.861
				c-1.678,1.677-3.355,3.355-4.941,4.941C4.871,14.638,9.232,14.62,11.931,11.922z"/>
			
				<linearGradient id="XMLID_8_" gradientUnits="userSpaceOnUse" x1="3.5942" y1="-3.3716" x2="3.5942" y2="15.2263" gradientTransform="matrix(-0.7071 0.7071 -0.7071 -0.7071 17.0236 6.9917)">
				<stop  offset="0" style="stop-color:#E6EEF4"/>
				<stop  offset="0.0772" style="stop-color:#C6DCC1"/>
				<stop  offset="0.211" style="stop-color:#91C06F"/>
				<stop  offset="0.321" style="stop-color:#6BAB33"/>
				<stop  offset="0.4014" style="stop-color:#539E0E"/>
				<stop  offset="0.4438" style="stop-color:#4A9900"/>
				<stop  offset="0.5475" style="stop-color:#398419"/>
				<stop  offset="0.7125" style="stop-color:#22663B"/>
				<stop  offset="0.8486" style="stop-color:#135550"/>
				<stop  offset="0.9382" style="stop-color:#0E4E58"/>
			</linearGradient>
			<path fill="url(#XMLID_8_)" d="M11.951,11.898c2.676-2.698,2.687-7.042,0.035-9.757C10.427,3.7,8.763,5.364,7.089,7.038
				C8.693,8.642,10.311,10.258,11.951,11.898z"/>
			
				<linearGradient id="XMLID_9_" gradientUnits="userSpaceOnUse" x1="3.5918" y1="2.7715" x2="3.5918" y2="14.2165" gradientTransform="matrix(-0.7071 0.7071 -0.7071 -0.7071 17.0236 6.9917)">
				<stop  offset="0" style="stop-color:#DCE8E4"/>
				<stop  offset="1" style="stop-color:#43910A"/>
			</linearGradient>
			<path fill="url(#XMLID_9_)" d="M11.986,2.141c-0.02-0.021-0.036-0.044-0.057-0.064C9.22-0.632,4.828-0.641,2.11,2.058
				c1.651,1.651,3.309,3.309,4.979,4.98C8.763,5.364,10.427,3.7,11.986,2.141z"/>
			<g>
				<path fill="#17594C" d="M6.999,0C3.133,0,0,3.134,0,7.001C0,10.866,3.133,14,6.999,14C10.866,14,14,10.866,14,7.001
					C14,3.134,10.866,0,6.999,0L6.999,0z M6.999,13.591c-3.634,0-6.59-2.956-6.59-6.59c0-3.635,2.956-6.592,6.59-6.592
					c3.635,0,6.592,2.957,6.592,6.592C13.591,10.635,10.634,13.591,6.999,13.591L6.999,13.591z"/>
			</g>
		</g>
		<linearGradient id="XMLID_10_" gradientUnits="userSpaceOnUse" x1="6.9282" y1="-0.4961" x2="6.9282" y2="6.2416">
			<stop  offset="0.0056" style="stop-color:#FFFFFF"/>
			<stop  offset="1" style="stop-color:#FFFFFF"/>
		</linearGradient>
		<ellipse opacity="0.2" fill="url(#XMLID_10_)" enable-background="new    " cx="6.928" cy="4.309" rx="4.983" ry="3.422"/>
	</g>
</g>
</svg>
