<?xml version="1.0" encoding="utf-8"?>
<!-- Generator: Adobe Illustrator 12.0.0, SVG Export Plug-In . SVG Version: 6.00 Build 51448)  -->
<!DOCTYPE svg PUBLIC "-//W3C//DTD SVG 1.1//EN" "http://www.w3.org/Graphics/SVG/1.1/DTD/svg11.dtd" [
	<!ENTITY ns_svg "http://www.w3.org/2000/svg">
	<!ENTITY ns_xlink "http://www.w3.org/1999/xlink">
]>
<svg  version="1.1" id="Layer_1" xmlns="&ns_svg;" xmlns:xlink="&ns_xlink;" width="14" height="14" viewBox="0 0 14 14"
	 overflow="visible" enable-background="new 0 0 14 14" xml:space="preserve">
<g>
	<rect x="0.001" y="0" fill="none" width="14" height="14"/>
	<g>
		<g>
			
				<linearGradient id="XMLID_6_" gradientUnits="userSpaceOnUse" x1="10.5522" y1="-3.3711" x2="10.5522" y2="15.2264" gradientTransform="matrix(0.7071 -0.7071 0.7071 0.7071 -3.0068 7.0062)">
				<stop  offset="0" style="stop-color:#E6EEF4"/>
				<stop  offset="0.0772" style="stop-color:#C6DCC1"/>
				<stop  offset="0.211" style="stop-color:#91C06F"/>
				<stop  offset="0.321" style="stop-color:#6BAB33"/>
				<stop  offset="0.4014" style="stop-color:#539E0E"/>
				<stop  offset="0.4438" style="stop-color:#4A9900"/>
				<stop  offset="0.5475" style="stop-color:#398419"/>
				<stop  offset="0.7125" style="stop-color:#22663B"/>
				<stop  offset="0.8486" style="stop-color:#135550"/>
				<stop  offset="0.9382" style="stop-color:#0E4E58"/>
			</linearGradient>
			<path fill="url(#XMLID_6_)" d="M6.927,6.961c1.671,1.671,3.329,3.328,4.98,4.979c0.008-0.007,0.017-0.013,0.023-0.021
				c2.718-2.718,2.718-7.126,0-9.843c-0.021-0.021-0.042-0.038-0.063-0.057C10.282,3.606,8.604,5.283,6.927,6.961z"/>
			
				<linearGradient id="XMLID_7_" gradientUnits="userSpaceOnUse" x1="10.5503" y1="2.771" x2="10.5503" y2="14.2174" gradientTransform="matrix(0.7071 -0.7071 0.7071 0.7071 -3.0068 7.0062)">
				<stop  offset="0" style="stop-color:#DCE8E4"/>
				<stop  offset="1" style="stop-color:#43910A"/>
			</linearGradient>
			<path fill="url(#XMLID_7_)" d="M2.086,2.076C2.079,2.083,2.073,2.092,2.065,2.099C3.706,3.74,5.323,5.356,6.927,6.961
				c1.677-1.678,3.355-3.355,4.941-4.941C9.145-0.639,4.785-0.622,2.086,2.076z"/>
			
				<linearGradient id="XMLID_8_" gradientUnits="userSpaceOnUse" x1="3.5938" y1="-3.3726" x2="3.5937" y2="15.2279" gradientTransform="matrix(0.7071 -0.7071 0.7071 0.7071 -3.0068 7.0062)">
				<stop  offset="0" style="stop-color:#E6EEF4"/>
				<stop  offset="0.0772" style="stop-color:#C6DCC1"/>
				<stop  offset="0.211" style="stop-color:#91C06F"/>
				<stop  offset="0.321" style="stop-color:#6BAB33"/>
				<stop  offset="0.4014" style="stop-color:#539E0E"/>
				<stop  offset="0.4438" style="stop-color:#4A9900"/>
				<stop  offset="0.5475" style="stop-color:#398419"/>
				<stop  offset="0.7125" style="stop-color:#22663B"/>
				<stop  offset="0.8486" style="stop-color:#135550"/>
				<stop  offset="0.9382" style="stop-color:#0E4E58"/>
			</linearGradient>
			<path fill="url(#XMLID_8_)" d="M2.065,2.099c-2.676,2.7-2.687,7.043-0.036,9.758c1.56-1.559,3.224-3.223,4.897-4.896
				C5.323,5.356,3.706,3.74,2.065,2.099z"/>
			
				<linearGradient id="XMLID_9_" gradientUnits="userSpaceOnUse" x1="3.5913" y1="2.7715" x2="3.5913" y2="14.2157" gradientTransform="matrix(0.7071 -0.7071 0.7071 0.7071 -3.0068 7.0062)">
				<stop  offset="0" style="stop-color:#DCE8E4"/>
				<stop  offset="1" style="stop-color:#43910A"/>
			</linearGradient>
			<path fill="url(#XMLID_9_)" d="M2.03,11.857c0.02,0.021,0.036,0.043,0.057,0.063c2.71,2.711,7.102,2.718,9.82,0.02
				c-1.651-1.651-3.309-3.309-4.98-4.979C5.253,8.635,3.589,10.299,2.03,11.857z"/>
			<g>
				<path fill="#17594C" d="M6.999,0C3.133,0,0,3.134,0,7.001C0,10.865,3.133,14,6.999,14C10.866,14,14,10.865,14,7.001
					C14,3.134,10.866,0,6.999,0L6.999,0z M6.999,13.592c-3.634,0-6.59-2.957-6.59-6.59c0-3.635,2.956-6.593,6.59-6.593
					c3.635,0,6.592,2.958,6.592,6.593C13.59,10.635,10.633,13.592,6.999,13.592L6.999,13.592z"/>
			</g>
		</g>
		<linearGradient id="XMLID_10_" gradientUnits="userSpaceOnUse" x1="6.9282" y1="-0.4961" x2="6.9282" y2="6.2416">
			<stop  offset="0.0056" style="stop-color:#FFFFFF"/>
			<stop  offset="1" style="stop-color:#FFFFFF"/>
		</linearGradient>
		<ellipse opacity="0.2" fill="url(#XMLID_10_)" enable-background="new    " cx="6.928" cy="4.309" rx="4.982" ry="3.422"/>
	</g>
</g>
</svg>
