<?xml version="1.0" encoding="utf-8"?>
<!-- Generator: Adobe Illustrator 12.0.0, SVG Export Plug-In . SVG Version: 6.00 Build 51448)  -->
<!DOCTYPE svg PUBLIC "-//W3C//DTD SVG 1.1//EN" "http://www.w3.org/Graphics/SVG/1.1/DTD/svg11.dtd" [
	<!ENTITY ns_svg "http://www.w3.org/2000/svg">
	<!ENTITY ns_xlink "http://www.w3.org/1999/xlink">
]>
<svg  version="1.1" id="Layer_1" xmlns="&ns_svg;" xmlns:xlink="&ns_xlink;" width="14" height="14" viewBox="0 0 14 14"
	 overflow="visible" enable-background="new 0 0 14 14" xml:space="preserve">
<g>
	<rect y="0" fill="none" width="14" height="14"/>
	<g>
		<g>
			
				<linearGradient id="XMLID_6_" gradientUnits="userSpaceOnUse" x1="10.5508" y1="-3.3726" x2="10.5508" y2="15.2263" gradientTransform="matrix(0.7071 0.7071 -0.7071 0.7071 7.002 -3.0148)">
				<stop  offset="0" style="stop-color:#E6EEF4"/>
				<stop  offset="0.0772" style="stop-color:#C6DCC1"/>
				<stop  offset="0.211" style="stop-color:#91C06F"/>
				<stop  offset="0.321" style="stop-color:#6BAB33"/>
				<stop  offset="0.4014" style="stop-color:#539E0E"/>
				<stop  offset="0.4438" style="stop-color:#4A9900"/>
				<stop  offset="0.5475" style="stop-color:#398419"/>
				<stop  offset="0.7125" style="stop-color:#22663B"/>
				<stop  offset="0.8486" style="stop-color:#135550"/>
				<stop  offset="0.9382" style="stop-color:#0E4E58"/>
			</linearGradient>
			<path fill="url(#XMLID_6_)" d="M7.046,6.917c-1.671,1.671-3.329,3.329-4.979,4.98c0.007,0.008,0.014,0.017,0.021,0.023
				c2.718,2.718,7.126,2.718,9.843,0c0.021-0.021,0.038-0.042,0.058-0.063C10.4,10.272,8.724,8.596,7.046,6.917z"/>
			
				<linearGradient id="XMLID_7_" gradientUnits="userSpaceOnUse" x1="10.5488" y1="2.7715" x2="10.5488" y2="14.2187" gradientTransform="matrix(0.7071 0.7071 -0.7071 0.7071 7.002 -3.0148)">
				<stop  offset="0" style="stop-color:#DCE8E4"/>
				<stop  offset="1" style="stop-color:#43910A"/>
			</linearGradient>
			<path fill="url(#XMLID_7_)" d="M11.931,2.077c-0.007-0.007-0.015-0.014-0.022-0.021C10.268,3.696,8.65,5.313,7.046,6.917
				c1.678,1.678,3.354,3.355,4.941,4.941C14.646,9.137,14.63,4.775,11.931,2.077z"/>
			
				<linearGradient id="XMLID_8_" gradientUnits="userSpaceOnUse" x1="3.5923" y1="-3.373" x2="3.5923" y2="15.2274" gradientTransform="matrix(0.7071 0.7071 -0.7071 0.7071 7.002 -3.0148)">
				<stop  offset="0" style="stop-color:#E6EEF4"/>
				<stop  offset="0.0772" style="stop-color:#C6DCC1"/>
				<stop  offset="0.211" style="stop-color:#91C06F"/>
				<stop  offset="0.321" style="stop-color:#6BAB33"/>
				<stop  offset="0.4014" style="stop-color:#539E0E"/>
				<stop  offset="0.4438" style="stop-color:#4A9900"/>
				<stop  offset="0.5475" style="stop-color:#398419"/>
				<stop  offset="0.7125" style="stop-color:#22663B"/>
				<stop  offset="0.8486" style="stop-color:#135550"/>
				<stop  offset="0.9382" style="stop-color:#0E4E58"/>
			</linearGradient>
			<path fill="url(#XMLID_8_)" d="M11.908,2.056C9.21-0.62,4.865-0.631,2.15,2.021c1.56,1.56,3.222,3.224,4.896,4.896
				C8.65,5.313,10.268,3.696,11.908,2.056z"/>
			
				<linearGradient id="XMLID_9_" gradientUnits="userSpaceOnUse" x1="3.5894" y1="2.771" x2="3.5894" y2="14.2168" gradientTransform="matrix(0.7071 0.7071 -0.7071 0.7071 7.002 -3.0148)">
				<stop  offset="0" style="stop-color:#DCE8E4"/>
				<stop  offset="1" style="stop-color:#43910A"/>
			</linearGradient>
			<path fill="url(#XMLID_9_)" d="M2.15,2.021C2.129,2.04,2.106,2.057,2.086,2.077c-2.709,2.71-2.718,7.102-0.02,9.82
				c1.651-1.651,3.309-3.309,4.979-4.98C5.372,5.245,3.709,3.581,2.15,2.021z"/>
			<g>
				<path fill="#17594C" d="M6.999,0C3.133,0,0,3.134,0,7.001C0,10.866,3.133,14,6.999,14C10.866,14,14,10.866,14,7.001
					C14,3.134,10.866,0,6.999,0L6.999,0z M6.999,13.591c-3.634,0-6.59-2.956-6.59-6.59c0-3.635,2.956-6.592,6.59-6.592
					c3.635,0,6.592,2.957,6.592,6.592C13.591,10.635,10.634,13.591,6.999,13.591L6.999,13.591z"/>
			</g>
		</g>
		<linearGradient id="XMLID_10_" gradientUnits="userSpaceOnUse" x1="6.9282" y1="-0.4961" x2="6.9282" y2="6.2416">
			<stop  offset="0.0056" style="stop-color:#FFFFFF"/>
			<stop  offset="1" style="stop-color:#FFFFFF"/>
		</linearGradient>
		<ellipse opacity="0.2" fill="url(#XMLID_10_)" enable-background="new    " cx="6.928" cy="4.309" rx="4.983" ry="3.422"/>
	</g>
</g>
</svg>
