<?xml version="1.0" encoding="UTF-8"?>
<!DOCTYPE svg PUBLIC "-//W3C//DTD SVG 1.1 Tiny//EN" "http://www.w3.org/Graphics/SVG/1.1/DTD/svg11-tiny.dtd">
<svg baseProfile="tiny" version="1.1" xmlns="http://www.w3.org/2000/svg" xmlns:xlink="http://www.w3.org/1999/xlink" width="100%" height="100%" viewBox="0 0 36 44">
<g>
<g>
<rect y="0" fill="none" width="36" height="44"/>
<g>
<linearGradient id="XMLID_3_" gradientUnits="userSpaceOnUse" x1="20.6406" y1="24.5981" x2="30.4117" y2="34.3692">
<stop offset="0" style="stop-color:#FFFFFF"/>
<stop offset="0.1142" style="stop-color:#E0EAF3"/>
<stop offset="0.35" style="stop-color:#A2C2DD"/>
<stop offset="0.4825" style="stop-color:#8CA9CF"/>
<stop offset="0.7" style="stop-color:#6C83BB"/>
<stop offset="0.7458" style="stop-color:#637DB5"/>
<stop offset="0.8189" style="stop-color:#4C6EA4"/>
<stop offset="0.9097" style="stop-color:#265689"/>
<stop offset="0.9888" style="stop-color:#003D6D"/>
<stop offset="1" style="stop-color:#003D6D"/>
</linearGradient>
<path fill="url(#XMLID_3_)" d="M32.647,33.026l-6.661-6.912c-0.97,1.473-2.214,2.747-3.668,3.742l6.565,6.815     L32.647,33.026z"/>
<linearGradient id="XMLID_4_" gradientUnits="userSpaceOnUse" x1="4.5537" y1="8.5444" x2="22.3187" y2="26.3087">
<stop offset="0" style="stop-color:#FFFFFF"/>
<stop offset="0.1142" style="stop-color:#E0EAF3"/>
<stop offset="0.35" style="stop-color:#A2C2DD"/>
<stop offset="0.4825" style="stop-color:#8CA9CF"/>
<stop offset="0.7" style="stop-color:#6C83BB"/>
<stop offset="0.7458" style="stop-color:#637DB5"/>
<stop offset="0.8189" style="stop-color:#4C6EA4"/>
<stop offset="0.9097" style="stop-color:#265689"/>
<stop offset="0.9888" style="stop-color:#003D6D"/>
<stop offset="1" style="stop-color:#003D6D"/>
</linearGradient>
<path fill="url(#XMLID_4_)" d="M14.716,7.329c-6.274,0-11.364,5.093-11.364,11.377     c0,6.282,5.09,11.377,11.364,11.377c6.275,0,11.361-5.095,11.361-11.377C26.077,12.422,20.991,7.329,14.716,7.329z      M14.716,27.637c-4.92,0-8.923-4.006-8.923-8.932c0-4.925,4.003-8.933,8.923-8.933c4.918,0,8.92,4.007,8.92,8.933     C23.636,23.631,19.634,27.637,14.716,27.637z"/>
</g>
<g>
<rect x="10.564" y="22.668" fill="#496DA2" width="8.298" height="2.422"/>
<polygon fill="#496DA2" points="18.976,15.529 15.771,15.529 15.771,12.321 13.659,12.321 13.659,15.529      10.455,15.529 10.455,17.646 13.659,17.646 13.659,20.853 15.771,20.853 15.771,17.646 18.976,17.646    "/>
</g>
</g>
</g>
</svg>
