<?xml version="1.0" encoding="UTF-8"?>
<!DOCTYPE svg PUBLIC "-//W3C//DTD SVG 1.1 Tiny//EN" "http://www.w3.org/Graphics/SVG/1.1/DTD/svg11-tiny.dtd">
<svg baseProfile="tiny" version="1.1" xmlns="http://www.w3.org/2000/svg" xmlns:xlink="http://www.w3.org/1999/xlink" width="100%" height="100%" viewBox="0 0 36 44">
<g>
<g>
<rect fill="none" width="36" height="44"/>
<g>
<linearGradient id="XMLID_3_" gradientUnits="userSpaceOnUse" x1="-0.7407" y1="1.6509" x2="25.1012" y2="28.7416">
<stop offset="0" style="stop-color:#FFFFFF"/>
<stop offset="0.1142" style="stop-color:#E0EAF3"/>
<stop offset="0.35" style="stop-color:#A2C2DD"/>
<stop offset="0.4825" style="stop-color:#8CA9CF"/>
<stop offset="0.7" style="stop-color:#6C83BB"/>
<stop offset="0.7458" style="stop-color:#637DB5"/>
<stop offset="0.8189" style="stop-color:#4C6EA4"/>
<stop offset="0.9097" style="stop-color:#265689"/>
<stop offset="0.9888" style="stop-color:#003D6D"/>
<stop offset="1" style="stop-color:#003D6D"/>
</linearGradient>
<path fill="url(#XMLID_3_)" d="M27.148,15.654c0,0.303,0,4.416,0,4.416c0,5.435-4.1,9.858-9.139,9.858     c-5.05,0-9.158-4.423-9.158-9.858c0,0,0-4.112,0-4.416c-0.275,0-2.352,0-2.626,0c0,0.303,0,4.416,0,4.416     c0.282,11.337,10.462,12.348,10.462,12.348s0,5.184,0,5.49c0.274,0,2.35,0,2.625,0c0-0.307,0-5.516,0-5.516     s9.914-0.454,10.462-12.323c0,0,0-4.112,0-4.416C29.499,15.654,27.424,15.654,27.148,15.654z"/>
<g>
<linearGradient id="XMLID_4_" gradientUnits="userSpaceOnUse" x1="1.6265" y1="-0.6118" x2="27.4665" y2="26.4769">
<stop offset="0" style="stop-color:#FFFFFF"/>
<stop offset="0.1142" style="stop-color:#E0EAF3"/>
<stop offset="0.35" style="stop-color:#A2C2DD"/>
<stop offset="0.4825" style="stop-color:#8CA9CF"/>
<stop offset="0.7" style="stop-color:#6C83BB"/>
<stop offset="0.7458" style="stop-color:#637DB5"/>
<stop offset="0.8189" style="stop-color:#4C6EA4"/>
<stop offset="0.9097" style="stop-color:#265689"/>
<stop offset="0.9888" style="stop-color:#003D6D"/>
<stop offset="1" style="stop-color:#003D6D"/>
</linearGradient>
<path fill="url(#XMLID_4_)" d="M18.003,5.929c-3.782,0-6.854,3.23-6.854,7.196v6.86      c0,3.968,3.072,7.194,6.854,7.194c3.779,0,6.854-3.227,6.854-7.194v-6.86C24.856,9.159,21.782,5.929,18.003,5.929z       M22.415,19.985c0,2.619-1.979,4.75-4.412,4.75s-4.414-2.131-4.414-4.75v-6.86c0-2.621,1.98-4.752,4.414-4.752      s4.412,2.131,4.412,4.752V19.985z"/>
</g>
</g>
</g>
</g>
</svg>
