<?xml version="1.0" encoding="utf-8"?>
<!-- Generator: Adobe Illustrator 12.0.0, SVG Export Plug-In . SVG Version: 6.00 Build 51448)  -->
<!DOCTYPE svg PUBLIC "-//W3C//DTD SVG 1.1//EN" "http://www.w3.org/Graphics/SVG/1.1/DTD/svg11.dtd" [
	<!ENTITY ns_svg "http://www.w3.org/2000/svg">
	<!ENTITY ns_xlink "http://www.w3.org/1999/xlink">
]>
<svg  version="1.1" id="Layer_1" xmlns="&ns_svg;" xmlns:xlink="&ns_xlink;" width="14" height="14" viewBox="0 0 14 14"
	 overflow="visible" enable-background="new 0 0 14 14" xml:space="preserve">
<g>
	<rect y="0" fill="none" width="14" height="14"/>
	<g>
		<g>
			
				<linearGradient id="XMLID_6_" gradientUnits="userSpaceOnUse" x1="10.5527" y1="-3.3721" x2="10.5527" y2="15.2242" gradientTransform="matrix(-0.7071 -0.7071 0.7071 -0.7071 7.0161 17.0138)">
				<stop  offset="0" style="stop-color:#E6EEF4"/>
				<stop  offset="0.0772" style="stop-color:#C6DCC1"/>
				<stop  offset="0.211" style="stop-color:#91C06F"/>
				<stop  offset="0.321" style="stop-color:#6BAB33"/>
				<stop  offset="0.4014" style="stop-color:#539E0E"/>
				<stop  offset="0.4438" style="stop-color:#4A9900"/>
				<stop  offset="0.5475" style="stop-color:#398419"/>
				<stop  offset="0.7125" style="stop-color:#22663B"/>
				<stop  offset="0.8486" style="stop-color:#135550"/>
				<stop  offset="0.9382" style="stop-color:#0E4E58"/>
			</linearGradient>
			<path fill="url(#XMLID_6_)" d="M6.97,7.081c1.671-1.671,3.329-3.328,4.979-4.979c-0.006-0.008-0.013-0.017-0.021-0.023
				c-2.718-2.718-7.125-2.718-9.843,0C2.065,2.098,2.048,2.12,2.029,2.14C3.615,3.726,5.292,5.403,6.97,7.081z"/>
			
				<linearGradient id="XMLID_7_" gradientUnits="userSpaceOnUse" x1="10.5508" y1="2.7695" x2="10.5508" y2="14.2159" gradientTransform="matrix(-0.7071 -0.7071 0.7071 -0.7071 7.0161 17.0138)">
				<stop  offset="0" style="stop-color:#DCE8E4"/>
				<stop  offset="1" style="stop-color:#43910A"/>
			</linearGradient>
			<path fill="url(#XMLID_7_)" d="M2.085,11.922c0.007,0.007,0.015,0.014,0.022,0.021c1.641-1.641,3.257-3.257,4.862-4.862
				C5.292,5.403,3.615,3.726,2.029,2.14C-0.63,4.862-0.613,9.224,2.085,11.922z"/>
			
				<linearGradient id="XMLID_8_" gradientUnits="userSpaceOnUse" x1="3.5942" y1="-3.3735" x2="3.5942" y2="15.2256" gradientTransform="matrix(-0.7071 -0.7071 0.7071 -0.7071 7.0161 17.0138)">
				<stop  offset="0" style="stop-color:#E6EEF4"/>
				<stop  offset="0.0772" style="stop-color:#C6DCC1"/>
				<stop  offset="0.211" style="stop-color:#91C06F"/>
				<stop  offset="0.321" style="stop-color:#6BAB33"/>
				<stop  offset="0.4014" style="stop-color:#539E0E"/>
				<stop  offset="0.4438" style="stop-color:#4A9900"/>
				<stop  offset="0.5475" style="stop-color:#398419"/>
				<stop  offset="0.7125" style="stop-color:#22663B"/>
				<stop  offset="0.8486" style="stop-color:#135550"/>
				<stop  offset="0.9382" style="stop-color:#0E4E58"/>
			</linearGradient>
			<path fill="url(#XMLID_8_)" d="M2.108,11.942c2.7,2.677,7.042,2.687,9.758,0.035c-1.56-1.56-3.223-3.224-4.896-4.897
				C5.365,8.686,3.749,10.302,2.108,11.942z"/>
			
				<linearGradient id="XMLID_9_" gradientUnits="userSpaceOnUse" x1="3.5918" y1="2.7705" x2="3.5918" y2="14.2147" gradientTransform="matrix(-0.7071 -0.7071 0.7071 -0.7071 7.0161 17.0138)">
				<stop  offset="0" style="stop-color:#DCE8E4"/>
				<stop  offset="1" style="stop-color:#43910A"/>
			</linearGradient>
			<path fill="url(#XMLID_9_)" d="M11.866,11.978c0.021-0.019,0.044-0.036,0.064-0.057c2.709-2.71,2.717-7.101,0.019-9.82
				C10.299,3.752,8.641,5.41,6.97,7.081C8.644,8.754,10.307,10.418,11.866,11.978z"/>
			<g>
				<path fill="#17594C" d="M6.999,0C3.133,0,0,3.134,0,7.001C0,10.866,3.133,14,6.999,14C10.866,14,14,10.866,14,7.001
					C14,3.134,10.866,0,6.999,0L6.999,0z M6.999,13.591c-3.634,0-6.59-2.956-6.59-6.59c0-3.635,2.956-6.592,6.59-6.592
					c3.635,0,6.592,2.957,6.592,6.592C13.591,10.635,10.634,13.591,6.999,13.591L6.999,13.591z"/>
			</g>
		</g>
		<linearGradient id="XMLID_10_" gradientUnits="userSpaceOnUse" x1="6.9282" y1="-0.4961" x2="6.9282" y2="6.2416">
			<stop  offset="0.0056" style="stop-color:#FFFFFF"/>
			<stop  offset="1" style="stop-color:#FFFFFF"/>
		</linearGradient>
		<ellipse opacity="0.2" fill="url(#XMLID_10_)" enable-background="new    " cx="6.928" cy="4.309" rx="4.983" ry="3.422"/>
	</g>
</g>
</svg>
