<?xml version="1.0" encoding="UTF-8"?>
<!DOCTYPE svg PUBLIC "-//W3C//DTD SVG 1.1 Tiny//EN" "http://www.w3.org/Graphics/SVG/1.1/DTD/svg11-tiny.dtd">
<svg baseProfile="tiny" height="44" version="1.1" viewBox="-0.328 0.109 44 44" width="44" xmlns="http://www.w3.org/2000/svg" xmlns:xlink="http://www.w3.org/1999/xlink">
<g>
<linearGradient gradientUnits="userSpaceOnUse" id="XMLID_4_" x1="28.5557" x2="28.5557" y1="10.2905" y2="33.4575">
<stop offset="0" style="stop-color:#B2B2B2"/>
<stop offset="1" style="stop-color:#000000"/>
</linearGradient>
<path d="M26.268,17.186c4.502,4.498,0.155,9.707-0.029,9.927l1.959,1.67   c2.121-2.482,4.826-8.487-0.108-13.419L26.268,17.186z" fill="url(#XMLID_4_)"/>
<linearGradient gradientUnits="userSpaceOnUse" id="XMLID_5_" x1="34.7637" x2="34.7637" y1="10.2905" y2="33.4575">
<stop offset="0" style="stop-color:#B2B2B2"/>
<stop offset="1" style="stop-color:#000000"/>
</linearGradient>
<path d="M33.177,9.96l-1.821,1.821c9.403,9.404,0.394,20.283,0.008,20.74l1.961,1.67   C33.436,34.063,44.273,21.056,33.177,9.96z" fill="url(#XMLID_5_)"/>
<linearGradient gradientUnits="userSpaceOnUse" id="XMLID_6_" x1="13.3936" x2="13.3936" y1="10.2905" y2="33.4575">
<stop offset="0" style="stop-color:#B2B2B2"/>
<stop offset="1" style="stop-color:#000000"/>
</linearGradient>
<path d="M14.4,9.778l-4.129,6.638h-5.1v11.19h5.213l4.107,6.834h7.123V9.833L14.4,9.778z M19.395,32.48   h-3.283l-4.366-7.27H7.395v-6.415h4.207l4.377-7.045l3.416,0.026V32.48z" fill="url(#XMLID_6_)"/>
<rect fill="none" height="44" width="44" x="-0.328" y="0.109"/>
</g>
</svg>
