<?xml version="1.0" encoding="UTF-8"?>
<!DOCTYPE svg PUBLIC "-//W3C//DTD SVG 1.1 Tiny//EN" "http://www.w3.org/Graphics/SVG/1.1/DTD/svg11-tiny.dtd">
<svg baseProfile="tiny" height="44" version="1.1" viewBox="-0.328 -0.548 44 44" width="44" xmlns="http://www.w3.org/2000/svg" xmlns:xlink="http://www.w3.org/1999/xlink">
<g>
<linearGradient gradientUnits="userSpaceOnUse" id="XMLID_4_" x1="21.6704" x2="21.6704" y1="6.624" y2="38.6246">
<stop offset="0" style="stop-color:#B2B2B2"/>
<stop offset="1" style="stop-color:#000000"/>
</linearGradient>
<path d="M33.254,20.847l-2.611,2.172h-2.203v-3.366h-0.076c1.289-1.177,2.117-2.86,2.117-4.753   c0-3.553-2.875-6.436-6.408-6.436c-1.129,0-2.164,0.314-3.077,0.827c-1.337-2.112-3.669-3.526-6.343-3.526   c-4.147,0-7.516,3.388-7.516,7.556c0,2.661,1.369,4.983,3.43,6.333H6.936v4.891h2.217v-3.02H26.22v13.021h-4.582v2.596h6.802v-5.58   h2.19l2.719,2.363h3.058V20.847H33.254z M23.713,19.332c-2.27,0-4.117-1.774-4.285-4.021c-0.762,1.977-2.654,3.381-4.889,3.381   c-2.904,0-5.26-2.368-5.26-5.288c0-2.923,2.354-5.285,5.26-5.285c2.842,0,5.137,2.267,5.236,5.103   c0.674-1.521,2.184-2.588,3.94-2.588c2.396,0,4.322,1.951,4.322,4.348C28.039,17.388,26.113,19.332,23.713,19.332z M33.939,31.421   l-2.201-1.936h-2.688v-4.309h2.672l2.217-1.859V31.421z" fill="url(#XMLID_4_)"/>
<linearGradient gradientUnits="userSpaceOnUse" id="XMLID_5_" x1="16.54" x2="16.54" y1="6.624" y2="38.624">
<stop offset="0" style="stop-color:#B2B2B2"/>
<stop offset="1" style="stop-color:#000000"/>
</linearGradient>
<rect fill="url(#XMLID_5_)" height="12.004" width="4.045" x="14.518" y="27.265"/>
<linearGradient gradientUnits="userSpaceOnUse" id="XMLID_6_" x1="9.1768" x2="9.1768" y1="6.624" y2="38.624">
<stop offset="0" style="stop-color:#B2B2B2"/>
<stop offset="1" style="stop-color:#000000"/>
</linearGradient>
<rect fill="url(#XMLID_6_)" height="12.004" width="4.045" x="7.154" y="27.265"/>
<rect fill="none" height="44" width="44" x="-0.328" y="-0.548"/>
</g>
</svg>
