<?xml version="1.0" encoding="UTF-8"?>
<!DOCTYPE svg PUBLIC "-//W3C//DTD SVG 1.1 Tiny//EN" "http://www.w3.org/Graphics/SVG/1.1/DTD/svg11-tiny.dtd">
<svg baseProfile="tiny" height="44" version="1.1" viewBox="0.136 0.009 44 44" width="44" xmlns="http://www.w3.org/2000/svg" xmlns:xlink="http://www.w3.org/1999/xlink">
<g>
<linearGradient gradientUnits="userSpaceOnUse" id="XMLID_7_" x1="14.3398" x2="14.3398" y1="7.5605" y2="36.1675">
<stop offset="0" style="stop-color:#B2B2B2"/>
<stop offset="1" style="stop-color:#000000"/>
</linearGradient>
<rect fill="url(#XMLID_7_)" height="3.297" width="3.278" x="12.7" y="29.104"/>
<linearGradient gradientUnits="userSpaceOnUse" id="XMLID_8_" x1="21.2695" x2="21.2695" y1="7.5605" y2="36.1675">
<stop offset="0" style="stop-color:#B2B2B2"/>
<stop offset="1" style="stop-color:#000000"/>
</linearGradient>
<rect fill="url(#XMLID_8_)" height="3.297" width="3.282" x="19.629" y="29.104"/>
<linearGradient gradientUnits="userSpaceOnUse" id="XMLID_9_" x1="33.4092" x2="33.4092" y1="7.5605" y2="36.1675">
<stop offset="0" style="stop-color:#B2B2B2"/>
<stop offset="1" style="stop-color:#000000"/>
</linearGradient>
<polygon fill="url(#XMLID_9_)" points="32.187,25.735 34.401,23.874 34.401,28.032 36.87,30.505 36.87,21.404 33.719,21.404    31.106,23.575 29.948,23.575 32.11,25.735  "/>
<linearGradient gradientUnits="userSpaceOnUse" id="XMLID_10_" x1="18.1514" x2="18.1514" y1="7.5605" y2="36.1675">
<stop offset="0" style="stop-color:#B2B2B2"/>
<stop offset="1" style="stop-color:#000000"/>
</linearGradient>
<path d="M26.685,35.101H9.616V22.078h6.34l-3.53-3.533c-0.823-0.469-1.502-1.146-1.974-1.975l-2.836-2.842   C7.614,13.779,7.6,13.826,7.6,13.876c0,2.661,1.37,4.983,3.431,6.331H7.399v17.491h21.504v-2.656l-2.22-2.223L26.685,35.101   L26.685,35.101z" fill="url(#XMLID_10_)"/>
<linearGradient gradientUnits="userSpaceOnUse" id="XMLID_11_" x1="21.9932" x2="21.9932" y1="7.5605" y2="36.1675">
<stop offset="0" style="stop-color:#B2B2B2"/>
<stop offset="1" style="stop-color:#000000"/>
</linearGradient>
<path d="M20.239,13.777c0.674-1.521,2.185-2.586,3.941-2.586c2.396,0,4.323,1.95,4.323,4.348   c0,1.787-1.067,3.318-2.599,3.986l2.998,3.003v-2.321h-0.076c1.289-1.174,2.117-2.857,2.117-4.752c0-3.551-2.875-6.436-6.408-6.436   c-1.129,0-2.164,0.315-3.078,0.827c-1.336-2.112-3.67-3.526-6.342-3.526c-0.724,0-1.41,0.137-2.074,0.33l2.033,2.033   C17.884,8.724,20.141,10.968,20.239,13.777z" fill="url(#XMLID_11_)"/>
<linearGradient gradientUnits="userSpaceOnUse" id="XMLID_12_" x1="22.1357" x2="22.1357" y1="7.5605" y2="36.1675">
<stop offset="0" style="stop-color:#B2B2B2"/>
<stop offset="1" style="stop-color:#000000"/>
</linearGradient>
<polygon fill="url(#XMLID_12_)" points="5.833,8.488 8.63,5.688 38.438,35.53 35.641,38.331  "/>
<rect fill="none" height="44" width="44" x="0.136" y="0.009"/>
</g>
</svg>
