<?xml version="1.0" encoding="UTF-8"?>
<!DOCTYPE svg PUBLIC "-//W3C//DTD SVG 1.1 Tiny//EN" "http://www.w3.org/Graphics/SVG/1.1/DTD/svg11-tiny.dtd">
<svg baseProfile="tiny" height="44" version="1.1" viewBox="-0.328 -0.22 44 44" width="44" xmlns="http://www.w3.org/2000/svg" xmlns:xlink="http://www.w3.org/1999/xlink">
<g>
<linearGradient gradientUnits="userSpaceOnUse" id="XMLID_6_" x1="31.7295" x2="31.7295" y1="7.124" y2="36.624">
<stop offset="0" style="stop-color:#B2B2B2"/>
<stop offset="1" style="stop-color:#000000"/>
</linearGradient>
<path d="M33.445,19.851c0,0,0-4.112,0-4.416c-0.274,0-2.351,0-2.625,0c0,0.303,0,4.416,0,4.416   c0,1.436-0.293,2.795-0.807,4.025l1.956,1.959C32.904,24.05,33.445,22.009,33.445,19.851z" fill="url(#XMLID_6_)"/>
<linearGradient gradientUnits="userSpaceOnUse" id="XMLID_7_" x1="17.5986" x2="17.5986" y1="7.124" y2="36.6241">
<stop offset="0" style="stop-color:#B2B2B2"/>
<stop offset="1" style="stop-color:#000000"/>
</linearGradient>
<path d="M21.682,29.708c-9.555-0.886-9.158-10.265-9.158-10.83l-2.625-2.629c0,1.284,0,3.602,0,3.602   c0.361,10.393,8.883,12.181,10.461,12.35c0,0,0,5.184,0,5.489c0.274,0,2.351,0,2.625,0c0-0.308,0-5.515,0-5.515   s1.558-0.17,2.314-0.506l-2.104-2.107C22.699,29.65,22.195,29.757,21.682,29.708z" fill="url(#XMLID_7_)"/>
<linearGradient gradientUnits="userSpaceOnUse" id="XMLID_8_" x1="17.7344" x2="17.7344" y1="7.124" y2="36.624">
<stop offset="0" style="stop-color:#B2B2B2"/>
<stop offset="1" style="stop-color:#000000"/>
</linearGradient>
<path d="M20.467,26.833l-5.465-5.473C15.609,24.153,17.76,26.323,20.467,26.833z" fill="url(#XMLID_8_)"/>
<linearGradient gradientUnits="userSpaceOnUse" id="XMLID_9_" x1="22.0967" x2="22.0967" y1="7.124" y2="36.624">
<stop offset="0" style="stop-color:#B2B2B2"/>
<stop offset="1" style="stop-color:#000000"/>
</linearGradient>
<path d="M21.675,8.153c2.435,0,4.412,2.132,4.412,4.752v6.859c0,0.057-0.013,0.107-0.017,0.164l2.082,2.082   c0.225-0.711,0.375-1.457,0.375-2.246v-6.859c0-3.966-3.073-7.195-6.854-7.195c-2.605,0-4.848,1.551-6.008,3.803l1.854,1.854   C18.117,9.503,19.745,8.153,21.675,8.153z" fill="url(#XMLID_9_)"/>
<linearGradient gradientUnits="userSpaceOnUse" id="XMLID_10_" x1="21.6719" x2="21.6719" y1="7.124" y2="36.624">
<stop offset="0" style="stop-color:#B2B2B2"/>
<stop offset="1" style="stop-color:#000000"/>
</linearGradient>
<polygon fill="url(#XMLID_10_)" points="5.371,8.261 8.168,5.46 37.973,35.302 35.176,38.101  "/>
<rect fill="none" height="44" width="44" x="-0.328" y="-0.22"/>
</g>
</svg>
