<?xml version="1.0" encoding="UTF-8"?>
<!DOCTYPE svg PUBLIC "-//W3C//DTD SVG 1.1 Tiny//EN" "http://www.w3.org/Graphics/SVG/1.1/DTD/svg11-tiny.dtd">
<svg baseProfile="tiny" height="44" version="1.1" viewBox="0.227 -0.563 44 44" width="44" xmlns="http://www.w3.org/2000/svg" xmlns:xlink="http://www.w3.org/1999/xlink">
<g>
<path d="M26.727,22.563c2.045-3.129,3.07-5.742,3.07-7.84c0-2.287-0.801-4.078-2.398-5.359   c-1.6-1.291-3.813-1.939-6.646-1.939c-1.695,0-3.252,0.437-4.65,1.31c-1.406,0.869-2.436,1.959-3.09,3.272l3.295,2.591   c1.168-2.007,2.713-3.013,4.629-3.013c2.508,0,3.76,1.045,3.76,3.127c0,1.761-0.871,3.927-2.617,6.486l-8.732,12.877v1.432h18.096   v-4.325H21.072L26.727,22.563z" fill="url(#XMLID_2_)"/>
<rect fill="none" height="44" width="44" x="0.227" y="-0.563"/>
<defs>
<linearGradient gradientUnits="userSpaceOnUse" id="XMLID_2_" x1="22.2266" x2="22.2266" y1="8.9624" y2="34.0747">
<stop offset="0" style="stop-color:#B2B2B2"/>
<stop offset="1" style="stop-color:#000000"/>
</linearGradient>
</defs>
</g>
</svg>
