<?xml version="1.0" encoding="UTF-8"?>
<!DOCTYPE svg PUBLIC "-//W3C//DTD SVG 1.1 Tiny//EN" "http://www.w3.org/Graphics/SVG/1.1/DTD/svg11-tiny.dtd">
<svg baseProfile="tiny" height="44" version="1.1" viewBox="-0.329 0.009 44 44" width="44" xmlns="http://www.w3.org/2000/svg" xmlns:xlink="http://www.w3.org/1999/xlink">
<g>
<linearGradient gradientUnits="userSpaceOnUse" id="XMLID_6_" x1="28.5679" x2="28.5679" y1="8.124" y2="37.1241">
<stop offset="0" style="stop-color:#B2B2B2"/>
<stop offset="1" style="stop-color:#000000"/>
</linearGradient>
<path d="M28.089,15.264l-1.822,1.822c1.734,1.733,2.15,3.569,2.001,5.188l2.178,2.182   C31.261,21.688,31.104,18.278,28.089,15.264z" fill="url(#XMLID_6_)"/>
<linearGradient gradientUnits="userSpaceOnUse" id="XMLID_7_" x1="34.7632" x2="34.7632" y1="8.124" y2="37.1241">
<stop offset="0" style="stop-color:#B2B2B2"/>
<stop offset="1" style="stop-color:#000000"/>
</linearGradient>
<path d="M33.177,9.86l-1.822,1.821c5.841,5.841,4.578,12.248,2.689,16.377l1.891,1.892   C38.306,25.196,40.437,17.12,33.177,9.86z" fill="url(#XMLID_7_)"/>
<linearGradient gradientUnits="userSpaceOnUse" id="XMLID_8_" x1="18.6558" x2="18.6558" y1="8.124" y2="37.124">
<stop offset="0" style="stop-color:#B2B2B2"/>
<stop offset="1" style="stop-color:#000000"/>
</linearGradient>
<polygon fill="url(#XMLID_8_)" points="19.394,11.679 19.394,13.39 21.615,15.614 21.615,9.733 15.696,9.688 17.671,11.665  "/>
<linearGradient gradientUnits="userSpaceOnUse" id="XMLID_9_" x1="13.3931" x2="13.3931" y1="8.124" y2="37.124">
<stop offset="0" style="stop-color:#B2B2B2"/>
<stop offset="1" style="stop-color:#000000"/>
</linearGradient>
<polygon fill="url(#XMLID_9_)" points="19.394,32.38 16.111,32.38 11.746,25.112 7.394,25.112 7.394,18.696 11.601,18.696    11.766,18.43 9.653,16.315 5.171,16.315 5.171,27.506 10.386,27.506 14.493,34.34 21.615,34.34 21.615,28.29 19.394,26.067  "/>
<linearGradient gradientUnits="userSpaceOnUse" id="XMLID_10_" x1="21.6714" x2="21.6714" y1="8.124" y2="37.124">
<stop offset="0" style="stop-color:#B2B2B2"/>
<stop offset="1" style="stop-color:#000000"/>
</linearGradient>
<polygon fill="url(#XMLID_10_)" points="5.371,8.489 8.167,5.688 37.972,35.53 35.175,38.329  "/>
<rect fill="none" height="44" width="44" x="-0.329" y="0.009"/>
</g>
</svg>
